#!OML:ASF X:\für Bonn\!DataBase\2005_08_10_Bjorn_Final\c3d\bjorn.ASF
:FULLY-SPECIFIED
:DEGREES
168
root -16.3553 17.5578 -3.73419 -363.78 385.876 -366.294
lowerback 4.17099 4.22642 5.01801
upperback 11.411 6.04875 -3.06632
thorax 10.8055 3.7348 -5.74241
lowerneck -10.0947 -0.775151 1.54026
upperneck -3.19623 -1.14734 2.4167
head 0.687578 -0.524342 0.449887
rclavicle 3.97569e-015 -1.74931e-014
rhumerus -47.4716 -1.30293 -94.531
rradius 52.0548
rwrist -3.34385
rhand -28.7879 23.5378
rfingers 7.12502
rthumb -2.14688 -6.4311
lclavicle 3.97569e-015 -1.74931e-014
lhumerus -20.6263 -21.6966 96.2981
lradius 105.204
lwrist 5.92924
lhand -53.2861 -25.3452
lfingers 7.12502
lthumb -25.7397 2.93401
rfemur -17.1149 -7.61363 1.85729
rtibia 91.3601
rfoot 3.16747 9.73225
rtoes -26.2176
lfemur -16.5826 -0.00518977 -34.0459
ltibia 48.874
lfoot -23.5062 0.34572
ltoes 19.6047
169
root -16.2253 17.577 -3.53956 -363.631 386.639 -366.736
lowerback 3.87844 3.9988 5.29896
upperback 11.345 5.70932 -2.90699
thorax 10.8622 3.58042 -5.73164
lowerneck -10.3345 -0.65947 1.64487
upperneck -3.06181 -1.01287 2.24979
head 0.768294 -0.456972 0.384915
rclavicle -1.4392e-013 6.67916e-014
rhumerus -48.5808 -0.954775 -94.3691
rradius 51.9029
rwrist -3.36503
rhand -28.6426 23.5209
rfingers 7.12502
rthumb -2.00655 -6.44945
lclavicle -1.4392e-013 6.67916e-014
lhumerus -19.2701 -22.4948 95.846
lradius 105.893
lwrist 6.07134
lhand -53.3772 -25.5807
lfingers 7.12502
lthumb -25.827 2.68586
rfemur -19.542 -7.75643 2.63119
rtibia 91.8433
rfoot 2.70033 9.29302
rtoes -24.5262
lfemur -15.6961 -0.0272638 -33.6717
ltibia 48.1885
lfoot -23.7085 -0.476345
ltoes 19.9744
170
root -16.0912 17.6053 -3.3449 -363.497 387.412 -367.188
lowerback 3.56991 3.75314 5.56292
upperback 11.259 5.34004 -2.72533
thorax 10.8945 3.40677 -5.69119
lowerneck -10.4217 -0.515564 1.7697
upperneck -2.95433 -0.839068 2.02186
head 0.814715 -0.37316 0.299617
rclavicle 7.71285e-014 -2.70347e-014
rhumerus -49.5735 -0.451529 -94.2712
rradius 51.8087
rwrist -3.07686
rhand -28.6444 23.3055
rfingers 7.12502
rthumb -2.00829 -6.6648
lclavicle 7.71285e-014 -2.70347e-014
lhumerus -18.0693 -23.2178 95.4146
lradius 106.547
lwrist 5.90747
lhand -53.4569 -26.154
lfingers 7.12502
lthumb -25.9033 2.1014
rfemur -21.9065 -7.84244 3.4677
rtibia 92.0362
rfoot 2.1588 9.0345
rtoes -23.5679
lfemur -14.731 0.0273705 -33.2582
ltibia 47.3548
lfoot -23.7561 -1.35517
ltoes 20.2334
171
root -15.9532 17.6408 -3.15024 -363.328 388.197 -367.577
lowerback 3.21956 3.48056 5.73591
upperback 11.1691 4.93033 -2.52321
thorax 10.9273 3.20284 -5.58065
lowerneck -10.477 -0.339647 1.83015
upperneck -2.82875 -0.615216 1.78697
head 0.862738 -0.264272 0.224923
rclavicle 3.06128e-014 -1.03368e-014
rhumerus -50.4552 0.278099 -94.2411
rradius 51.8913
rwrist -2.96604
rhand -28.5543 23.0511
rfingers 7.12502
rthumb -1.92128 -6.92004
lclavicle 3.06128e-014 -1.03368e-014
lhumerus -16.9503 -23.7947 95.0063
lradius 107.198
lwrist 5.5549
lhand -53.4599 -26.4752
lfingers 7.12502
lthumb -25.9062 1.7798
rfemur -24.1749 -7.76311 4.28425
rtibia 91.9078
rfoot 1.54533 8.7448
rtoes -22.35
lfemur -13.7058 0.0253125 -32.9113
ltibia 46.4022
lfoot -23.7407 -2.08869
ltoes 20.1574
172
root -15.811 17.6829 -2.95414 -363.167 389.018 -367.816
lowerback 2.92093 3.17957 5.71788
upperback 11.0923 4.48915 -2.31987
thorax 10.919 2.96522 -5.36986
lowerneck -10.5193 -0.134428 1.93263
upperneck -2.63928 -0.357755 1.45434
head 0.929771 -0.14067 0.114242
rclavicle 5.28767e-014 -3.49861e-014
rhumerus -51.2448 1.03096 -94.144
rradius 51.914
rwrist -2.8442
rhand -28.2845 23.3523
rfingers 7.12502
rthumb -1.66067 -6.62095
lclavicle 5.28767e-014 -3.49861e-014
lhumerus -15.983 -24.2485 94.6167
lradius 107.805
lwrist 5.05447
lhand -53.4786 -26.3622
lfingers 7.12502
lthumb -25.9242 1.8902
rfemur -26.166 -7.58821 4.96751
rtibia 91.3887
rfoot 0.98012 8.64922
rtoes -20.784
lfemur -12.5567 0.0030013 -32.73
ltibia 45.391
lfoot -23.661 -2.52612
ltoes 19.0279
173
root -15.6704 17.7224 -2.75843 -363.022 389.818 -368.08
lowerback 2.62127 2.85849 5.66299
upperback 11.0133 4.01844 -2.08162
thorax 10.9019 2.70738 -5.10494
lowerneck -10.5219 0.102032 1.99802
upperneck -2.48606 -0.0518474 1.13411
head 0.980191 0.00678578 0.0156198
rclavicle 1.11319e-014 7.95139e-016
rhumerus -51.9872 1.77691 -94.0088
rradius 52.0665
rwrist -2.60456
rhand -27.9842 23.7208
rfingers 7.12502
rthumb -1.37066 -6.25459
lclavicle 1.11319e-014 7.95139e-016
lhumerus -15.0886 -24.6248 94.1832
lradius 108.218
lwrist 4.50857
lhand -53.4943 -26.457
lfingers 7.12502
lthumb -25.9392 1.79317
rfemur -28.0221 -7.33587 5.74809
rtibia 90.5385
rfoot 0.340813 8.74436
rtoes -19.9044
lfemur -11.4058 -0.0157155 -32.4938
ltibia 44.3556
lfoot -23.4717 -3.0255
ltoes 18.0022
174
root -15.5281 17.7678 -2.56141 -362.969 390.64 -368.513
lowerback 2.33225 2.52204 5.73294
upperback 10.915 3.51832 -1.79095
thorax 10.8656 2.44311 -4.85852
lowerneck -10.5482 0.344124 2.04884
upperneck -2.26394 0.261676 0.833799
head 1.05847 0.158793 -0.074009
rclavicle -1.41137e-013 3.73715e-014
rhumerus -52.6973 2.50235 -93.8633
rradius 52.3443
rwrist -2.43348
rhand -27.7182 23.9436
rfingers 7.12502
rthumb -1.11379 -6.03326
lclavicle -1.41137e-013 3.73715e-014
lhumerus -14.2939 -25.0544 93.6555
lradius 108.552
lwrist 3.95865
lhand -53.4787 -26.9217
lfingers 7.12502
lthumb -25.9242 1.3307
rfemur -29.7451 -7.05732 6.73847
rtibia 89.4137
rfoot -0.56065 8.80799
rtoes -20.4574
lfemur -10.2525 -0.0617324 -32.07
ltibia 43.3125
lfoot -23.1469 -3.57956
ltoes 17.069
175
root -15.3843 17.8158 -2.36309 -362.982 391.465 -369.074
lowerback 2.01732 2.20031 5.92986
upperback 10.8333 3.03291 -1.51192
thorax 10.8839 2.20184 -4.6955
lowerneck -10.7326 0.599828 2.23878
upperneck -1.94898 0.572945 0.538139
head 1.19636 0.310019 -0.185379
rclavicle -1.19271e-014 -1.90833e-014
rhumerus -53.2793 2.97124 -93.6856
rradius 52.6316
rwrist -2.14633
rhand -27.5666 24.3153
rfingers 7.12502
rthumb -0.967356 -5.66226
lclavicle -1.19271e-014 -1.90833e-014
lhumerus -13.5802 -25.6323 92.9588
lradius 108.89
lwrist 3.39966
lhand -53.4756 -27.4522
lfingers 7.12502
lthumb -25.9212 0.800635
rfemur -31.394 -6.79385 7.87529
rtibia 88.1036
rfoot -1.75555 8.76168
rtoes -22.8729
lfemur -9.09801 -0.126117 -31.4963
ltibia 42.2332
lfoot -22.7114 -4.21053
ltoes 16.0238
176
root -15.2349 17.874 -2.16406 -363.052 392.305 -369.697
lowerback 1.70242 1.89946 6.18853
upperback 10.776 2.5725 -1.23609
thorax 10.9425 1.9818 -4.5704
lowerneck -10.9722 0.840448 2.53113
upperneck -1.66184 0.852509 0.196079
head 1.33819 0.443482 -0.329782
rclavicle -3.26007e-014 3.65764e-014
rhumerus -53.7752 3.26235 -93.4694
rradius 52.9871
rwrist -1.8789
rhand -27.5194 24.8015
rfingers 7.12502
rthumb -0.92176 -5.17625
lclavicle -3.26007e-014 3.65764e-014
lhumerus -12.9579 -26.3671 92.1425
lradius 109.309
lwrist 2.91557
lhand -53.4806 -27.7974
lfingers 7.12502
lthumb -25.926 0.454651
rfemur -32.9198 -6.52423 9.06748
rtibia 86.5492
rfoot -3.00834 8.56255
rtoes -26.1835
lfemur -7.89716 -0.283801 -30.8539
ltibia 41.0751
lfoot -21.9611 -4.93147
ltoes 15.4176
177
root -15.0772 17.9453 -1.96323 -363.184 393.161 -370.408
lowerback 1.39696 1.58195 6.5458
upperback 10.6831 2.084 -0.96747
thorax 10.9591 1.75584 -4.51441
lowerneck -11.1561 1.10252 2.86383
upperneck -1.35646 1.15677 -0.14415
head 1.48021 0.58866 -0.479719
rclavicle -1.145e-013 7.31528e-014
rhumerus -54.2893 3.50282 -93.2731
rradius 53.4212
rwrist -1.65022
rhand -27.4824 25.468
rfingers 7.12502
rthumb -0.88596 -4.50993
lclavicle -1.145e-013 7.31528e-014
lhumerus -12.5865 -27.0771 91.3606
lradius 109.792
lwrist 2.38516
lhand -53.4939 -27.95
lfingers 7.12502
lthumb -25.9388 0.300255
rfemur -34.2803 -6.22164 10.295
rtibia 84.6915
rfoot -4.08081 8.32546
rtoes -28.9833
lfemur -6.6372 -0.582307 -30.1412
ltibia 39.8021
lfoot -20.8715 -5.63978
ltoes 15.2749
178
root -14.9146 18.0269 -1.76217 -363.309 394.019 -371.066
lowerback 1.12305 1.27215 6.86292
upperback 10.5724 1.60996 -0.720267
thorax 10.9367 1.53315 -4.46114
lowerneck -11.3122 1.36918 3.18192
upperneck -1.01963 1.46913 -0.466643
head 1.63103 0.738128 -0.621494
rclavicle -3.1408e-014 -1.43125e-014
rhumerus -54.8135 3.79195 -93.2029
rradius 54.0864
rwrist -1.77222
rhand -27.5667 25.788
rfingers 7.12502
rthumb -0.967465 -4.18958
lclavicle -3.1408e-014 -1.43125e-014
lhumerus -12.353 -27.8097 90.6135
lradius 110.067
lwrist 1.86773
lhand -53.5727 -28.1245
lfingers 7.12502
lthumb -26.0142 0.114664
rfemur -35.454 -5.8876 11.4026
rtibia 82.5211
rfoot -4.83468 8.05834
rtoes -30.6317
lfemur -5.31078 -0.843813 -29.4609
ltibia 38.3921
lfoot -19.4862 -6.38339
ltoes 15.2619
179
root -14.7491 18.1175 -1.55958 -363.323 394.908 -371.541
lowerback 0.841639 0.935526 6.96712
upperback 10.4266 1.10941 -0.485549
thorax 10.8635 1.27564 -4.30673
lowerneck -11.3618 1.64526 3.45882
upperneck -0.72109 1.80456 -0.816549
head 1.754 0.897649 -0.764292
rclavicle -2.3059e-014 -7.15625e-015
rhumerus -55.4166 4.20552 -93.1837
rradius 54.9034
rwrist -2.11167
rhand -27.5604 25.9392
rfingers 7.12502
rthumb -0.961321 -4.03836
lclavicle -2.3059e-014 -7.15625e-015
lhumerus -12.329 -28.384 90.0471
lradius 110.012
lwrist 1.25647
lhand -53.7013 -28.4202
lfingers 7.12502
lthumb -26.1374 -0.199194
rfemur -36.4543 -5.59687 12.2644
rtibia 80.0509
rfoot -5.30584 7.77488
rtoes -31.3522
lfemur -3.96797 -1.01475 -28.9117
ltibia 36.8562
lfoot -17.845 -7.10541
ltoes 15.0293
180
root -14.5791 18.2158 -1.35618 -363.313 395.815 -371.911
lowerback 0.610085 0.578361 6.96309
upperback 10.2538 0.591734 -0.258674
thorax 10.7258 0.997695 -4.10418
lowerneck -11.2926 1.9154 3.70529
upperneck -0.45571 2.14177 -1.16635
head 1.84742 1.05755 -0.902445
rclavicle 2.26615e-014 2.14687e-014
rhumerus -56.0316 4.57017 -93.0778
rradius 55.7299
rwrist -2.33844
rhand -27.4419 26.2392
rfingers 7.12502
rthumb -0.846891 -3.73888
lclavicle 2.26615e-014 2.14687e-014
lhumerus -12.5032 -28.8409 89.6657
lradius 109.804
lwrist 0.75059
lhand -53.6848 -28.7895
lfingers 7.12502
lthumb -26.1216 -0.56616
rfemur -37.227 -5.32762 12.9393
rtibia 77.3089
rfoot -5.54283 7.50443
rtoes -31.2712
lfemur -2.56891 -1.18379 -28.4473
ltibia 35.2332
lfoot -16.0319 -7.74622
ltoes 14.7657
